# xmcd
# 
# Track frame offsets:
#     150
#     11860
#     23550
#     35534
#     46892
#     57427
#     68681
#     81329
#     92742
#     106981
#     121881
#     133615
#     144646
#     155003
#     170946
#     182643
#     195059
#     206683
#     219335
#     230359
#     242357
#     252584
#     263938
#     277102
#     289737
# 
# Disc length: 4048
# 
# Revision: 3
# Processed by: cddbd v1.5.2PL0 Copyright (c) Steve Scherf et al.
# Submitted via: fre:ac v1.0.17
# 
DISCID=6d0fce19
DTITLE=Ray Charles - The Essence of Ray Charles - Disc 2
DYEAR=2007
DGENRE=Blues
TTITLE0=Hallelujah I Love Her So
TTITLE1=What Would I Do Without You?
TTITLE2=Leave My Woman Alone
TTITLE3=This Little Girl Of Mine
TTITLE4=Th'Ego Song
TTITLE5=Jack, She's On The Ball
TTITLE6=Feelin' Sad
TTITLE7=Guitar Blues
TTITLE8=Kissa Me Baby
TTITLE9=I'm Wonderin' and Wonderin'
TTITLE10=Roll With Me Baby
TTITLE11=Let's Have A Ball
TTITLE12=Hey Now
TTITLE13=I Found My Baby There
TTITLE14=If I Give You My Love
TTITLE15=I'm Glad For Your Sake
TTITLE16=How Long, How Long Blues
TTITLE17=I'm Just A Lonely Boy
TTITLE18=I'll Do Anything But Work
TTITLE19=Can't You See Me Darling?
TTITLE20=I've Had My Fun (Goin' Down Slow)
TTITLE21=Back Home
TTITLE22=Alone In This City
TTITLE23=You'll Never Miss Your Water Until The Well Runs Dry
TTITLE24=Late In The Evening Blues
EXTD=Tracks 1-5, 7-16, 18-20, 22 and 25 performed by Ray Charles\nTracks 6 and 21 performed by The Ray Charles Trio\nTracks 17, 23 and 24 performed by Ray Charles and The Maxim Trio
EXTT0=
EXTT1=
EXTT2=
EXTT3=
EXTT4=
EXTT5=
EXTT6=
EXTT7=
EXTT8=
EXTT9=
EXTT10=
EXTT11=
EXTT12=
EXTT13=
EXTT14=
EXTT15=
EXTT16=
EXTT17=
EXTT18=
EXTT19=
EXTT20=
EXTT21=
EXTT22=
EXTT23=
EXTT24=
PLAYORDER=
